<svg xmlns="http://www.w3.org/2000/svg" viewBox="0 0 940 420" role="img" aria-label="Train and test accuracy over 40,000 steps">
<style>
  .rf-bg { fill: none; }
  .rf-ax { stroke: var(--grid); stroke-width: 1; }
  .rf-tk { font-family: var(--font-mono); font-size: 11px; fill: var(--muted); }
  .rf-lb { font-family: var(--font-mono); font-size: 11px; fill: var(--muted); letter-spacing: 0.08em; }
  .rf-ttl { font-family: var(--font-ui); font-size: 14px; fill: var(--ink); font-weight: 600; }
  .rf-train { fill: none; stroke: var(--muted); stroke-width: 2; }
  .rf-test { fill: none; stroke: var(--ink); stroke-width: 2.4; }
  .rf-mk-fire { stroke: var(--accent); stroke-width: 1.6; stroke-dasharray: 4 3; }
  .rf-mk-grok { stroke: var(--verified); stroke-width: 1.6; }
  .rf-note { font-family: var(--font-mono); font-size: 10.5px; fill: var(--muted); }
  .rf-bar { fill: var(--accent); }
  .rf-bar-dim { fill: var(--muted); opacity: 0.4; }
  .rf-zero { stroke: var(--ink); stroke-width: 1.2; }
  .rf-dot { fill: var(--accent); }
  .rf-dot-late { fill: var(--warn); }
  .rf-name { font-family: var(--font-ui); font-size: 12px; fill: var(--ink); }
  .rf-val { font-family: var(--font-mono); font-size: 11px; fill: var(--muted); }
</style>
<line class="rf-ax" x1="58" y1="372" x2="918" y2="372"/><text class="rf-tk" x="49" y="376" text-anchor="end">0.00</text><line class="rf-ax" x1="58" y1="287.5" x2="918" y2="287.5"/><text class="rf-tk" x="49" y="291.5" text-anchor="end">0.25</text><line class="rf-ax" x1="58" y1="203" x2="918" y2="203"/><text class="rf-tk" x="49" y="207" text-anchor="end">0.50</text><line class="rf-ax" x1="58" y1="118.5" x2="918" y2="118.5"/><text class="rf-tk" x="49" y="122.5" text-anchor="end">0.75</text><line class="rf-ax" x1="58" y1="34" x2="918" y2="34"/><text class="rf-tk" x="49" y="38" text-anchor="end">1.00</text><text class="rf-tk" x="58" y="391" text-anchor="middle">1</text><text class="rf-tk" x="244.87283556072026" y="391" text-anchor="middle">10</text><text class="rf-tk" x="431.7456711214405" y="391" text-anchor="middle">100</text><text class="rf-tk" x="618.6185066821607" y="391" text-anchor="middle">1,000</text><text class="rf-tk" x="805.491342242881" y="391" text-anchor="middle">10,000</text><text class="rf-tk" x="918" y="391" text-anchor="middle">40,000</text><text class="rf-lb" x="488" y="412" text-anchor="middle">training step (log scale)</text><text class="rf-lb" x="15" y="210" text-anchor="middle" transform="rotate(-90 15 210)">accuracy</text><text class="rf-ttl" x="58" y="20">(a + b) mod 97, seed 0</text><rect x="562.3641778036013" y="34" width="170.76698576961053" height="338" fill="var(--accent)" opacity="0.08"/><path class="rf-train" d="M58.0 367.8 L431.7 366.7 L488.0 366.7 L520.9 349.6 L544.3 114.0 L562.4 34.0 L577.2 34.0 L589.7 34.0 L600.5 34.0 L610.1 34.0 L618.6 34.0 L626.4 37.0 L633.4 34.0 L639.9 34.0 L645.9 34.0 L651.5 34.0 L656.8 34.0 L661.7 34.0 L666.3 34.0 L670.7 58.7 L674.9 34.0 L678.8 34.0 L682.6 34.0 L686.2 34.0 L689.7 34.0 L693.0 34.0 L696.2 217.7 L699.2 34.0 L702.2 34.0 L705.0 142.1 L707.8 34.0 L710.4 34.0 L713.0 34.0 L715.5 34.0 L717.9 34.0 L720.3 34.0 L722.6 36.2 L724.8 34.0 L727.0 34.0 L729.1 34.0 L731.1 34.0 L733.1 34.0 L735.1 34.0 L737.0 34.0 L738.9 34.0 L740.7 34.0 L742.5 34.0 L744.2 34.0 L745.9 34.0 L747.6 34.0 L749.2 34.0 L750.8 34.0 L752.4 34.0 L754.0 34.0 L755.5 34.0 L757.0 34.0 L758.4 34.0 L759.9 34.0 L761.3 34.0 L762.7 34.0 L764.0 34.0 L765.4 34.0 L766.7 34.0 L768.0 34.0 L769.3 34.0 L770.5 34.0 L771.8 34.0 L773.0 34.0 L774.2 34.0 L775.4 34.0 L776.5 34.0 L777.7 34.0 L778.8 34.0 L780.0 34.0 L781.1 34.0 L782.1 34.0 L783.2 34.0 L784.3 34.0 L785.3 34.0 L786.4 34.0 L787.4 34.0 L788.4 34.0 L789.4 34.0 L790.4 34.0 L791.3 34.0 L792.3 34.0 L793.3 34.0 L794.2 34.0 L795.1 34.0 L796.0 34.0 L796.9 34.0 L797.8 34.0 L798.7 34.0 L799.6 34.0 L800.5 34.0 L801.3 34.0 L802.2 34.0 L803.0 34.0 L803.9 34.0 L804.7 34.0 L805.5 34.0 L806.3 34.0 L807.1 34.0 L807.9 37.6 L808.7 34.0 L809.5 34.0 L810.2 34.0 L811.0 34.0 L811.7 34.0 L812.5 34.0 L813.2 34.0 L814.0 34.0 L814.7 34.0 L815.4 34.0 L816.1 34.0 L816.8 34.0 L817.5 34.0 L818.2 34.0 L818.9 34.0 L819.6 34.0 L820.3 34.0 L821.0 34.0 L821.6 34.0 L822.3 34.0 L822.9 34.0 L823.6 34.0 L824.2 34.0 L824.9 34.0 L825.5 34.0 L826.2 34.0 L826.8 34.0 L827.4 34.0 L828.0 34.0 L828.6 34.0 L829.2 34.0 L829.8 34.0 L830.4 34.0 L831.0 34.0 L831.6 34.0 L832.2 34.0 L832.8 34.0 L833.4 34.0 L833.9 34.0 L834.5 34.0 L835.1 34.0 L835.6 34.0 L836.2 34.0 L836.8 34.0 L837.3 34.0 L837.9 34.0 L838.4 34.0 L838.9 34.0 L839.5 34.0 L840.0 34.0 L840.5 34.0 L841.1 34.0 L841.6 34.0 L842.1 34.0 L842.6 34.0 L843.1 34.0 L843.6 34.0 L844.1 34.0 L844.6 34.0 L845.1 34.0 L845.6 34.0 L846.1 34.0 L846.6 34.0 L847.1 34.0 L847.6 34.0 L848.1 34.0 L848.6 34.0 L849.0 34.0 L849.5 34.0 L850.0 34.0 L850.4 34.0 L850.9 34.0 L851.4 34.0 L851.8 34.0 L852.3 34.0 L852.7 34.0 L853.2 34.0 L853.6 34.0 L854.1 34.0 L854.5 34.5 L855.0 34.0 L855.4 34.0 L855.9 34.0 L856.3 34.0 L856.7 35.8 L857.2 34.0 L857.6 34.0 L858.0 34.0 L858.4 34.0 L858.9 34.0 L859.3 34.0 L859.7 34.0 L860.1 34.0 L860.5 34.0 L860.9 34.0 L861.3 34.0 L861.7 34.0 L862.2 34.0 L862.6 34.0 L863.0 34.0 L863.4 34.0 L863.7 34.0 L864.1 34.0 L864.5 34.0 L864.9 34.0 L865.3 34.0 L865.7 34.0 L866.1 34.0 L866.5 34.0 L866.9 34.0 L867.2 34.0 L867.6 34.0 L868.0 34.0 L868.4 34.0 L868.7 34.0 L869.1 34.0 L869.5 34.0 L869.8 34.0 L870.2 34.0 L870.6 34.0 L870.9 34.0 L871.3 34.0 L871.7 34.0 L872.0 34.0 L872.4 34.0 L872.7 34.0 L873.1 34.0 L873.4 34.0 L873.8 34.0 L874.1 34.0 L874.5 34.0 L874.8 34.0 L875.2 34.0 L875.5 34.0 L875.9 34.0 L876.2 34.0 L876.5 34.0 L876.9 34.0 L877.2 34.0 L877.6 34.0 L877.9 34.0 L878.2 34.0 L878.5 34.0 L878.9 34.0 L879.2 34.0 L879.5 34.0 L879.9 34.0 L880.2 34.2 L880.5 34.0 L880.8 34.0 L881.1 34.0 L881.5 34.0 L881.8 34.2 L882.1 34.0 L882.4 34.0 L882.7 34.0 L883.0 34.0 L883.4 34.0 L883.7 34.0 L884.0 34.0 L884.3 34.0 L884.6 34.0 L884.9 34.2 L885.2 34.0 L885.5 34.0 L885.8 34.0 L886.1 34.0 L886.4 34.0 L886.7 34.0 L887.0 34.0 L887.3 34.0 L887.6 34.0 L887.9 34.0 L888.2 34.0 L888.5 34.0 L888.8 34.0 L889.1 34.0 L889.3 34.0 L889.6 34.0 L889.9 34.0 L890.2 34.0 L890.5 34.0 L890.8 34.0 L891.1 34.0 L891.3 34.0 L891.6 34.0 L891.9 34.0 L892.2 34.0 L892.5 34.0 L892.7 34.0 L893.0 34.0 L893.3 34.0 L893.6 34.0 L893.8 34.0 L894.1 34.0 L894.4 34.0 L894.7 34.0 L894.9 34.0 L895.2 34.0 L895.5 34.0 L895.7 34.0 L896.0 34.0 L896.3 34.0 L896.5 34.0 L896.8 34.0 L897.1 34.0 L897.3 58.8 L897.6 34.0 L897.8 34.0 L898.1 34.0 L898.4 34.0 L898.6 34.0 L898.9 34.0 L899.1 34.0 L899.4 34.0 L899.6 34.0 L899.9 34.0 L900.1 34.0 L900.4 34.0 L900.6 34.0 L900.9 34.0 L901.1 34.0 L901.4 34.0 L901.6 34.0 L901.9 34.0 L902.1 34.0 L902.4 34.0 L902.6 34.0 L902.9 34.0 L903.1 34.0 L903.4 34.0 L903.6 34.0 L903.8 34.0 L904.1 34.0 L904.3 34.0 L904.6 34.0 L904.8 34.0 L905.0 34.0 L905.3 34.0 L905.5 34.0 L905.8 34.0 L906.0 34.0 L906.2 34.0 L906.5 34.0 L906.7 34.0 L906.9 34.0 L907.2 34.0 L907.4 34.0 L907.6 34.0 L907.9 34.0 L908.1 34.0 L908.3 34.0 L908.5 34.0 L908.8 34.0 L909.0 34.0 L909.2 34.0 L909.4 34.0 L909.7 34.0 L909.9 34.0 L910.1 34.0 L910.3 34.0 L910.6 34.0 L910.8 34.0 L911.0 34.0 L911.2 34.0 L911.5 34.0 L911.7 34.0 L911.9 34.0 L912.1 34.0 L912.3 34.0 L912.5 34.0 L912.8 34.0 L913.0 34.0 L913.2 34.0 L913.4 34.0 L913.6 34.0 L913.8 34.0 L914.1 34.0 L914.3 34.0 L914.5 34.0 L914.7 34.0 L914.9 34.0 L915.1 34.0 L915.3 34.0 L915.5 34.0 L915.7 34.0 L915.9 34.0 L916.2 34.0 L916.4 34.0 L916.6 34.0 L916.8 34.0 L917.0 34.0 L917.2 34.0 L917.4 34.0 L917.6 34.0 L917.8 34.0 L918.0 34.0"/><path class="rf-test" d="M58.0 368.6 L431.7 369.3 L488.0 369.3 L520.9 371.3 L544.3 371.9 L562.4 371.5 L577.2 371.5 L589.7 371.7 L600.5 371.5 L610.1 371.4 L618.6 371.3 L626.4 371.3 L633.4 371.3 L639.9 371.4 L645.9 371.3 L651.5 371.4 L656.8 371.2 L661.7 371.4 L666.3 371.2 L670.7 370.9 L674.9 371.2 L678.8 371.0 L682.6 371.2 L686.2 371.1 L689.7 370.9 L693.0 370.5 L696.2 369.0 L699.2 370.0 L702.2 368.6 L705.0 367.2 L707.8 365.4 L710.4 362.1 L713.0 360.5 L715.5 358.4 L717.9 352.9 L720.3 345.6 L722.6 340.3 L724.8 298.4 L727.0 293.6 L729.1 267.6 L731.1 229.6 L733.1 173.7 L735.1 114.8 L737.0 57.3 L738.9 35.3 L740.7 34.3 L742.5 34.1 L744.2 34.0 L745.9 34.0 L747.6 34.0 L749.2 34.0 L750.8 34.0 L752.4 34.0 L754.0 34.0 L755.5 34.0 L757.0 34.0 L758.4 34.0 L759.9 34.0 L761.3 34.0 L762.7 34.0 L764.0 34.0 L765.4 34.0 L766.7 34.0 L768.0 34.0 L769.3 34.0 L770.5 34.0 L771.8 34.0 L773.0 34.0 L774.2 34.0 L775.4 34.0 L776.5 34.0 L777.7 34.0 L778.8 34.0 L780.0 34.0 L781.1 34.2 L782.1 34.0 L783.2 34.0 L784.3 34.0 L785.3 34.0 L786.4 34.2 L787.4 34.0 L788.4 34.0 L789.4 34.0 L790.4 34.0 L791.3 34.0 L792.3 34.0 L793.3 34.0 L794.2 34.0 L795.1 34.0 L796.0 34.0 L796.9 34.0 L797.8 34.0 L798.7 34.0 L799.6 34.0 L800.5 34.0 L801.3 34.0 L802.2 34.0 L803.0 34.0 L803.9 34.0 L804.7 34.0 L805.5 34.0 L806.3 34.0 L807.1 34.0 L807.9 41.0 L808.7 34.0 L809.5 34.0 L810.2 34.0 L811.0 34.0 L811.7 34.0 L812.5 34.0 L813.2 34.0 L814.0 34.0 L814.7 34.0 L815.4 34.0 L816.1 34.0 L816.8 34.0 L817.5 34.0 L818.2 34.0 L818.9 34.0 L819.6 34.0 L820.3 34.0 L821.0 34.0 L821.6 34.0 L822.3 34.0 L822.9 34.0 L823.6 34.0 L824.2 34.0 L824.9 34.0 L825.5 34.0 L826.2 34.0 L826.8 34.0 L827.4 34.0 L828.0 34.0 L828.6 34.0 L829.2 34.0 L829.8 34.0 L830.4 34.0 L831.0 34.0 L831.6 34.0 L832.2 34.0 L832.8 34.0 L833.4 34.0 L833.9 34.0 L834.5 34.0 L835.1 34.0 L835.6 34.0 L836.2 34.0 L836.8 34.0 L837.3 34.0 L837.9 34.0 L838.4 34.0 L838.9 34.0 L839.5 34.0 L840.0 34.1 L840.5 34.0 L841.1 34.0 L841.6 34.0 L842.1 34.0 L842.6 34.0 L843.1 34.0 L843.6 34.0 L844.1 34.0 L844.6 34.0 L845.1 34.0 L845.6 34.0 L846.1 34.0 L846.6 34.0 L847.1 34.0 L847.6 34.0 L848.1 34.0 L848.6 34.0 L849.0 34.0 L849.5 34.0 L850.0 34.0 L850.4 34.0 L850.9 34.0 L851.4 34.0 L851.8 34.0 L852.3 34.0 L852.7 34.0 L853.2 34.0 L853.6 34.0 L854.1 34.0 L854.5 34.7 L855.0 34.0 L855.4 34.0 L855.9 34.0 L856.3 34.0 L856.7 37.5 L857.2 34.0 L857.6 34.0 L858.0 34.0 L858.4 34.0 L858.9 34.0 L859.3 34.0 L859.7 34.0 L860.1 34.0 L860.5 34.0 L860.9 34.1 L861.3 34.0 L861.7 34.0 L862.2 34.0 L862.6 34.0 L863.0 34.0 L863.4 34.0 L863.7 34.0 L864.1 34.0 L864.5 34.0 L864.9 34.0 L865.3 34.0 L865.7 34.0 L866.1 34.0 L866.5 34.0 L866.9 34.0 L867.2 34.0 L867.6 34.0 L868.0 34.0 L868.4 34.6 L868.7 34.0 L869.1 34.0 L869.5 34.0 L869.8 34.0 L870.2 34.2 L870.6 34.0 L870.9 34.0 L871.3 34.0 L871.7 34.0 L872.0 34.1 L872.4 34.0 L872.7 34.0 L873.1 34.0 L873.4 34.0 L873.8 34.1 L874.1 34.0 L874.5 34.0 L874.8 34.0 L875.2 34.0 L875.5 34.0 L875.9 34.0 L876.2 34.0 L876.5 34.0 L876.9 34.0 L877.2 34.0 L877.6 34.0 L877.9 34.0 L878.2 34.0 L878.5 34.0 L878.9 34.0 L879.2 34.0 L879.5 34.0 L879.9 34.0 L880.2 35.1 L880.5 34.0 L880.8 34.0 L881.1 34.0 L881.5 34.0 L881.8 34.9 L882.1 34.0 L882.4 34.0 L882.7 34.0 L883.0 34.0 L883.4 34.0 L883.7 34.0 L884.0 34.0 L884.3 34.0 L884.6 34.0 L884.9 34.4 L885.2 34.0 L885.5 34.0 L885.8 34.0 L886.1 34.0 L886.4 34.0 L886.7 34.0 L887.0 34.0 L887.3 34.0 L887.6 34.0 L887.9 34.0 L888.2 34.0 L888.5 34.0 L888.8 34.0 L889.1 34.0 L889.3 34.0 L889.6 34.0 L889.9 34.0 L890.2 34.0 L890.5 34.0 L890.8 34.0 L891.1 34.0 L891.3 34.0 L891.6 34.0 L891.9 34.0 L892.2 34.0 L892.5 34.0 L892.7 34.0 L893.0 34.0 L893.3 34.0 L893.6 34.0 L893.8 34.0 L894.1 34.0 L894.4 34.0 L894.7 34.0 L894.9 34.0 L895.2 34.0 L895.5 34.0 L895.7 34.0 L896.0 34.0 L896.3 34.0 L896.5 34.0 L896.8 34.0 L897.1 34.0 L897.3 65.2 L897.6 34.0 L897.8 34.0 L898.1 34.0 L898.4 34.0 L898.6 34.0 L898.9 34.0 L899.1 34.0 L899.4 34.0 L899.6 34.0 L899.9 34.0 L900.1 34.0 L900.4 34.0 L900.6 34.0 L900.9 34.0 L901.1 34.0 L901.4 34.0 L901.6 34.0 L901.9 34.0 L902.1 34.0 L902.4 34.0 L902.6 34.0 L902.9 34.0 L903.1 34.0 L903.4 34.0 L903.6 34.0 L903.8 34.0 L904.1 34.0 L904.3 34.0 L904.6 34.0 L904.8 34.1 L905.0 34.0 L905.3 34.0 L905.5 34.0 L905.8 34.0 L906.0 34.0 L906.2 34.0 L906.5 34.0 L906.7 34.0 L906.9 34.0 L907.2 34.0 L907.4 34.0 L907.6 34.0 L907.9 34.0 L908.1 34.0 L908.3 34.0 L908.5 34.0 L908.8 34.0 L909.0 34.0 L909.2 34.0 L909.4 34.0 L909.7 34.0 L909.9 34.0 L910.1 34.0 L910.3 34.0 L910.6 34.0 L910.8 34.0 L911.0 34.0 L911.2 34.0 L911.5 34.0 L911.7 34.0 L911.9 34.0 L912.1 34.0 L912.3 34.0 L912.5 34.0 L912.8 34.0 L913.0 34.0 L913.2 34.0 L913.4 34.0 L913.6 34.0 L913.8 34.0 L914.1 34.0 L914.3 34.0 L914.5 34.0 L914.7 34.0 L914.9 34.0 L915.1 34.0 L915.3 34.0 L915.5 34.0 L915.7 34.0 L915.9 34.0 L916.2 34.0 L916.4 34.0 L916.6 34.0 L916.8 34.0 L917.0 34.0 L917.2 34.0 L917.4 34.0 L917.6 34.0 L917.8 34.0 L918.0 34.0"/><line class="rf-mk-fire" x1="562.3641778036013" y1="34" x2="562.3641778036013" y2="372"/><text class="rf-note" x="568.3641778036013" y="48">memorised 500</text><line class="rf-mk-grok" x1="733.1311635732118" y1="34" x2="733.1311635732118" y2="372"/><text class="rf-note" x="739.1311635732118" y="64">grokked 4,100</text><text class="rf-note" x="568.3641778036013" y="362">3,600 steps of memorising without generalising</text>
</svg>