<svg xmlns="http://www.w3.org/2000/svg" viewBox="0 0 940 352" role="img" aria-label="Lead time per signal across eight seeds">
<style>
  .bg { fill: none; }
  .ax { stroke: var(--grid); stroke-width: 1; }
  .tk { font-family: var(--font-mono); font-size: 11px; fill: var(--muted); }
  .lb { font-family: var(--font-mono); font-size: 11px; fill: var(--muted); letter-spacing: 0.08em; }
  .ttl { font-family: var(--font-ui); font-size: 14px; fill: var(--ink); font-weight: 600; }
  .train { fill: none; stroke: var(--muted); stroke-width: 2; }
  .test { fill: none; stroke: var(--ink); stroke-width: 2.4; }
  .mk-fire { stroke: var(--accent); stroke-width: 1.6; stroke-dasharray: 4 3; }
  .mk-grok { stroke: var(--verified); stroke-width: 1.6; }
  .note { font-family: var(--font-mono); font-size: 10.5px; fill: var(--muted); }
  .bar { fill: var(--accent); }
  .bar-dim { fill: var(--muted); opacity: 0.4; }
  .zero { stroke: var(--ink); stroke-width: 1.2; }
  .dot { fill: var(--accent); }
  .dot-late { fill: var(--warn); }
  .name { font-family: var(--font-ui); font-size: 12px; fill: var(--ink); }
  .val { font-family: var(--font-mono); font-size: 11px; fill: var(--muted); }
</style>
<text class="ttl" x="10" y="18">Lead time per seed, modular addition</text><line class="ax" x1="277.2413793103448" y1="30" x2="277.2413793103448" y2="306"/><text class="tk" x="277.2413793103448" y="324" text-anchor="middle">0</text><line class="ax" x1="389.31034482758616" y1="30" x2="389.31034482758616" y2="306"/><text class="tk" x="389.31034482758616" y="324" text-anchor="middle">1,000</text><line class="ax" x1="501.3793103448276" y1="30" x2="501.3793103448276" y2="306"/><text class="tk" x="501.3793103448276" y="324" text-anchor="middle">2,000</text><line class="ax" x1="613.448275862069" y1="30" x2="613.448275862069" y2="306"/><text class="tk" x="613.448275862069" y="324" text-anchor="middle">3,000</text><line class="ax" x1="725.5172413793103" y1="30" x2="725.5172413793103" y2="306"/><text class="tk" x="725.5172413793103" y="324" text-anchor="middle">4,000</text><line class="ax" x1="837.5862068965517" y1="30" x2="837.5862068965517" y2="306"/><text class="tk" x="837.5862068965517" y="324" text-anchor="middle">5,000</text><line class="zero" x1="277.2413793103448" y1="30" x2="277.2413793103448" y2="306"/><text class="lb" x="535" y="344" text-anchor="middle">steps of warning before the test-accuracy jump</text><text class="name" x="198" y="57" text-anchor="end">embed_eff_rank</text><line x1="210" y1="53" x2="848.7931034482758" y2="53" stroke="var(--muted)" stroke-width="1.5" opacity="0.4"/><circle class="dot-late" cx="243.6206896551724" cy="53" r="4.5" opacity="0.85"/><circle class="dot-late" cx="210" cy="53" r="4.5" opacity="0.85"/><circle class="dot" cx="714.3103448275863" cy="53" r="4.5" opacity="0.85"/><circle class="dot" cx="411.7241379310345" cy="53" r="4.5" opacity="0.85"/><circle class="dot-late" cx="266.0344827586207" cy="53" r="4.5" opacity="0.85"/><circle class="dot" cx="848.7931034482758" cy="53" r="4.5" opacity="0.85"/><circle class="dot-late" cx="210" cy="53" r="4.5" opacity="0.85"/><circle class="dot-late" cx="210" cy="53" r="4.5" opacity="0.85"/><text class="val" x="870" y="57">3/8</text><text class="name" x="198" y="103" text-anchor="end">embed_norm</text><line x1="389.31034482758616" y1="99" x2="680.6896551724137" y2="99" stroke="var(--muted)" stroke-width="1.5" opacity="0.4"/><circle class="dot" cx="490.17241379310343" cy="99" r="4.5" opacity="0.85"/><circle class="dot" cx="389.31034482758616" cy="99" r="4.5" opacity="0.85"/><circle class="dot" cx="568.6206896551723" cy="99" r="4.5" opacity="0.85"/><circle class="dot" cx="400.51724137931035" cy="99" r="4.5" opacity="0.85"/><circle class="dot" cx="445.34482758620686" cy="99" r="4.5" opacity="0.85"/><circle class="dot" cx="680.6896551724137" cy="99" r="4.5" opacity="0.85"/><circle class="dot" cx="490.17241379310343" cy="99" r="4.5" opacity="0.85"/><circle class="dot" cx="434.1379310344828" cy="99" r="4.5" opacity="0.85"/><text class="val" x="870" y="103">8/8</text><text class="name" x="198" y="149" text-anchor="end">fourier_eff_freqs</text><line x1="490.17241379310343" y1="145" x2="860" y2="145" stroke="var(--muted)" stroke-width="1.5" opacity="0.4"/><circle class="dot" cx="568.6206896551723" cy="145" r="4.5" opacity="0.85"/><circle class="dot" cx="490.17241379310343" cy="145" r="4.5" opacity="0.85"/><circle class="dot" cx="747.9310344827586" cy="145" r="4.5" opacity="0.85"/><circle class="dot" cx="546.2068965517242" cy="145" r="4.5" opacity="0.85"/><circle class="dot" cx="546.2068965517242" cy="145" r="4.5" opacity="0.85"/><circle class="dot" cx="860" cy="145" r="4.5" opacity="0.85"/><circle class="dot" cx="613.448275862069" cy="145" r="4.5" opacity="0.85"/><circle class="dot" cx="579.8275862068965" cy="145" r="4.5" opacity="0.85"/><text class="val" x="870" y="149">8/8</text><text class="name" x="198" y="195" text-anchor="end">fourier_entropy</text><line x1="490.17241379310343" y1="191" x2="860" y2="191" stroke="var(--muted)" stroke-width="1.5" opacity="0.4"/><circle class="dot" cx="568.6206896551723" cy="191" r="4.5" opacity="0.85"/><circle class="dot" cx="490.17241379310343" cy="191" r="4.5" opacity="0.85"/><circle class="dot" cx="747.9310344827586" cy="191" r="4.5" opacity="0.85"/><circle class="dot" cx="546.2068965517242" cy="191" r="4.5" opacity="0.85"/><circle class="dot" cx="546.2068965517242" cy="191" r="4.5" opacity="0.85"/><circle class="dot" cx="860" cy="191" r="4.5" opacity="0.85"/><circle class="dot" cx="624.6551724137931" cy="191" r="4.5" opacity="0.85"/><circle class="dot" cx="579.8275862068965" cy="191" r="4.5" opacity="0.85"/><text class="val" x="870" y="195">8/8</text><text class="name" x="198" y="241" text-anchor="end">fourier_top_k_power</text><line x1="467.7586206896552" y1="237" x2="848.7931034482758" y2="237" stroke="var(--muted)" stroke-width="1.5" opacity="0.4"/><circle class="dot" cx="557.4137931034483" cy="237" r="4.5" opacity="0.85"/><circle class="dot" cx="467.7586206896552" cy="237" r="4.5" opacity="0.85"/><circle class="dot" cx="759.1379310344828" cy="237" r="4.5" opacity="0.85"/><circle class="dot" cx="557.4137931034483" cy="237" r="4.5" opacity="0.85"/><circle class="dot" cx="523.7931034482758" cy="237" r="4.5" opacity="0.85"/><circle class="dot" cx="848.7931034482758" cy="237" r="4.5" opacity="0.85"/><circle class="dot" cx="579.8275862068965" cy="237" r="4.5" opacity="0.85"/><circle class="dot" cx="568.6206896551723" cy="237" r="4.5" opacity="0.85"/><text class="val" x="870" y="241">8/8</text><text class="name" x="198" y="287" text-anchor="end">weight_norm</text><line x1="277.2413793103448" y1="283" x2="277.2413793103448" y2="283" stroke="var(--muted)" stroke-width="1.5" opacity="0.4"/><circle class="dot" cx="277.2413793103448" cy="283" r="4.5" opacity="0.85"/><circle class="dot" cx="277.2413793103448" cy="283" r="4.5" opacity="0.85"/><circle class="dot" cx="277.2413793103448" cy="283" r="4.5" opacity="0.85"/><circle class="dot" cx="277.2413793103448" cy="283" r="4.5" opacity="0.85"/><circle class="dot" cx="277.2413793103448" cy="283" r="4.5" opacity="0.85"/><circle class="dot" cx="277.2413793103448" cy="283" r="4.5" opacity="0.85"/><circle class="dot" cx="277.2413793103448" cy="283" r="4.5" opacity="0.85"/><circle class="dot" cx="277.2413793103448" cy="283" r="4.5" opacity="0.85"/><text class="val" x="870" y="287">0/8</text><text class="note" x="210" y="342">each dot is one seed; amber dots fired after the jump, not before</text>
</svg>